<svg xmlns="http://www.w3.org/2000/svg" viewBox="0 0 100 100" width="200px" height="200px"><path fill="#ead6c7" d="M21,67.71C21,63,25,56.5,25,56.5V53c0,0-2-2-5.241-2C16.897,51,14,53.278,14,57.63 c0,4.71,3.255,9.618,7.075,11.53C21.031,68.686,21,68.206,21,67.71z"/><path fill="#ccac94" d="M25,56.5h-2.49c-1.648,0-2.997,1.349-2.997,2.997c0,1.52,1.15,2.771,2.621,2.959 C23.317,59.244,25,56.5,25,56.5z"/><path fill="#ead6c7" d="M50,75.5c-5.789,0-10.5-4.037-10.5-9s4.711-9,10.5-9s10.5,4.037,10.5,9S55.789,75.5,50,75.5z"/><path fill="#ead6c7" d="M79,67.71C79,63,75,56.5,75,56.5V53c0,0,2-2,5.241-2C83.103,51,86,53.278,86,57.63 c0,4.71-3.255,9.618-7.075,11.53C78.969,68.686,79,68.206,79,67.71z"/><path fill="#ccac94" d="M77.49,56.5H75c0,0,1.683,2.744,2.866,5.956c1.471-0.188,2.621-1.439,2.621-2.959 C80.487,57.849,79.138,56.5,77.49,56.5z"/><path fill="#f27c7c" d="M50,10c-23,0-36,22-36,31.041c0,4.228,2.451,7.84,4.491,10.116c0.418-0.1,0.843-0.157,1.268-0.157 C23,51,25,53,25,53v-1.971c0-1.427,0.682-2.791,1.824-3.647L27.2,47.1c0,0,0.001-0.001,0.002-0.001 c0.009-0.007,0.073-0.053,0.17-0.12c0.023-0.039,0.045-0.061,0.068-0.05C28.9,45.92,36.704,41,50,41 c13.302,0,21.106,4.924,22.562,5.93c0.023-0.01,0.052,0.015,0.085,0.062c0.084,0.059,0.142,0.1,0.151,0.107 c0,0,0.001,0.001,0.002,0.001l0.376,0.282C74.318,48.238,75,49.603,75,51.029V53c0,0,2-2,5.241-2c0.426,0,0.851,0.057,1.268,0.157 C83.549,48.881,86,45.268,86,41.041C86,32,73,10,50,10z"/><path fill="#e85654" d="M50,41c13.302,0,21.106,4.924,22.562,5.93C73.383,46.551,76,45.098,76,42c0-4.823-6.924-12-26-12 s-26,7.177-26,12c0,3.069,2.628,4.546,3.44,4.929C28.9,45.92,36.704,41,50,41z"/><path fill="#ead6c7" d="M75,53v-1.971c0-1.427-0.682-2.791-1.824-3.647L72.8,47.1c0,0-0.001-0.001-0.002-0.001 c-0.009-0.006-0.067-0.048-0.151-0.107c-0.033-0.047-0.062-0.073-0.085-0.062C71.106,45.924,63.302,41,50,41 c-13.296,0-21.1,4.92-22.56,5.929c-0.023-0.011-0.046,0.011-0.068,0.05c-0.097,0.067-0.16,0.113-0.17,0.12 c0,0-0.001,0.001-0.002,0.001l-0.376,0.282C25.682,48.238,25,49.603,25,51.029V53v3.5c0,0-4,6.5-4,11.21 c0,11.513,12.341,16.802,13.748,17.367c0.644,0.255,1.221,0.486,1.71,0.717c0.844,0.395,1.589,0.797,2.31,1.186l0.122,0.066 C41.698,88.566,44.347,90,50,90s8.302-1.434,11.11-2.954l0.122-0.066c0.721-0.389,1.466-0.791,2.31-1.186 c0.489-0.23,1.066-0.462,1.71-0.717C66.659,84.512,79,79.223,79,67.71C79,63,75,56.5,75,56.5V53z"/><path fill="#b77748" d="M27.5,47.5l-0.377,0.282c-1.022,0.766-1.623,1.969-1.623,3.247V53h-1c0,2.359,0,4.399,0,5.41 c0,0,0.516-1.064,1-1.769c2.5-3.642,5-5.142,5-5.142v-5.748C28.535,46.733,27.5,47.5,27.5,47.5z"/><path fill="#b77748" d="M72.5,47.5l0.377,0.282c1.022,0.766,1.623,1.969,1.623,3.247V53h1c0,2.359,0,4.399,0,5.41 c0,0-0.516-1.064-1-1.769C72,53,69.5,51.5,69.5,51.5v-5.748C71.465,46.733,72.5,47.5,72.5,47.5z"/><path fill="#fefdef" d="M40.021,30.756c-0.214,0-0.407-0.137-0.476-0.345C39.184,29.3,39,28.152,39,27 c0-6.065,4.935-11,11-11s11,4.935,11,11c0,1.147-0.181,2.287-0.537,3.388c-0.076,0.232-0.307,0.373-0.554,0.34 C56.857,30.245,53.523,30,50,30c-3.593,0-6.923,0.252-9.897,0.749C40.075,30.754,40.048,30.756,40.021,30.756z"/><path fill="#b77748" d="M72,64.5c0,0-2.574,4.397-12.417,5.661C57.942,73.302,54.268,75.5,50,75.5s-7.942-2.198-9.583-5.339 C30.574,68.897,28,64.5,28,64.5s-0.5,0.5-0.5,3s1.213,4.66,3.01,5.697C30.615,76.695,33.477,79.5,37,79.5 c1.183,0,2.289-0.321,3.245-0.874C40.938,80.87,43.029,82.5,45.5,82.5c1.862,0,3.505-0.928,4.5-2.344 c0.995,1.416,2.638,2.344,4.5,2.344c2.471,0,4.562-1.63,5.255-3.874C60.711,79.179,61.817,79.5,63,79.5 c3.523,0,6.385-2.805,6.49-6.303C71.287,72.16,72.5,70,72.5,67.5S72,64.5,72,64.5z"/><g><path fill="#1f212b" d="M22.51,62.994c-1.929,0-3.497-1.568-3.497-3.497S20.581,56,22.51,56h2.99v1h-2.99 c-1.377,0-2.497,1.12-2.497,2.497s1.12,2.497,2.497,2.497V62.994z"/><path fill="#1f212b" d="M22.236,70.859l-1.609-0.806C16.278,67.877,13,62.536,13,57.63c0-5.009,3.4-7.63,6.76-7.63 c3.613,0,5.854,2.199,5.947,2.293L26,52.586v4.197l-0.148,0.24C25.813,57.087,22,63.342,22,67.71c0,0.412,0.022,0.844,0.07,1.356 L22.236,70.859z M19.76,52C17.395,52,15,53.934,15,57.63c0,3.542,2.104,7.48,5.008,9.686c0.18-4.398,3.263-9.858,3.992-11.093 V53.46C23.391,52.987,21.866,52,19.76,52z"/><path fill="#1f212b" d="M50,76c-6.065,0-11-4.262-11-9.5S43.935,57,50,57s11,4.262,11,9.5S56.065,76,50,76z M50,58 c-5.514,0-10,3.813-10,8.5S44.486,75,50,75s10-3.813,10-8.5S55.514,58,50,58z"/><path fill="#1f212b" d="M54.5,83c-1.729,0-3.366-0.751-4.5-2.037C48.866,82.249,47.229,83,45.5,83 c-2.447,0-4.601-1.45-5.529-3.666C39.04,79.771,38.024,80,37,80c-3.713,0-6.727-2.84-6.977-6.514C28.151,72.282,27,70.017,27,67.5 c0-2.512,0.495-3.202,0.646-3.354c0.11-0.109,0.265-0.161,0.417-0.143c0.154,0.02,0.29,0.109,0.368,0.243 c0.023,0.04,2.62,4.208,12.049,5.418c0.162,0.021,0.304,0.12,0.38,0.265C42.469,73.01,46.057,75,50,75s7.531-1.99,9.14-5.07 c0.076-0.145,0.218-0.244,0.38-0.265c9.489-1.218,12.024-5.376,12.049-5.418c0.078-0.134,0.214-0.224,0.368-0.243 c0.151-0.022,0.307,0.032,0.417,0.143C72.505,64.298,73,64.988,73,67.5c0,2.517-1.151,4.782-3.023,5.986 C69.727,77.16,66.713,80,63,80c-1.024,0-2.04-0.229-2.971-0.666C59.101,81.55,56.947,83,54.5,83z M50,79.656 c0.163,0,0.315,0.079,0.409,0.213C51.347,81.203,52.876,82,54.5,82c2.206,0,4.126-1.415,4.777-3.521 c0.045-0.146,0.153-0.263,0.295-0.318c0.142-0.054,0.302-0.042,0.433,0.033C60.919,78.722,61.954,79,63,79 c3.261,0,5.892-2.556,5.99-5.817c0.006-0.174,0.1-0.332,0.25-0.418c1.702-0.983,2.76-3,2.76-5.265c0-0.941-0.074-1.573-0.156-1.984 c-1.217,1.352-4.533,4.104-11.942,5.107C58.067,73.898,54.214,76,50,76s-8.067-2.102-9.901-5.377 c-7.412-1.003-10.729-3.759-11.943-5.109C28.074,65.923,28,66.555,28,67.5c0,2.265,1.058,4.281,2.76,5.265 c0.15,0.086,0.244,0.244,0.25,0.418C31.108,76.444,33.739,79,37,79c1.046,0,2.081-0.278,2.995-0.806 c0.132-0.075,0.292-0.087,0.433-0.033c0.142,0.056,0.25,0.173,0.295,0.318C41.374,80.585,43.294,82,45.5,82 c1.624,0,3.153-0.797,4.091-2.131C49.685,79.735,49.837,79.656,50,79.656z"/><path fill="#1f212b" d="M42,52c-1.366,0-2.506,1.225-2.869,2.891C39.365,54.367,39.888,54,40.5,54 c0.828,0,1.5,0.672,1.5,1.5S41.328,57,40.5,57c-0.755,0-1.374-0.56-1.478-1.286C39.016,55.81,39,55.902,39,56c0,2.209,1.343,4,3,4 s3-1.791,3-4S43.657,52,42,52z"/><path fill="#1f212b" d="M58,52c-1.366,0-2.506,1.225-2.869,2.891C55.365,54.367,55.888,54,56.5,54 c0.828,0,1.5,0.672,1.5,1.5S57.328,57,56.5,57c-0.755,0-1.374-0.56-1.478-1.286C55.016,55.81,55,55.902,55,56c0,2.209,1.343,4,3,4 s3-1.791,3-4S59.657,52,58,52z"/><path fill="#1f212b" d="M24.5,58.91c-0.037,0-0.074-0.004-0.112-0.013C24.161,58.845,24,58.644,24,58.41V53 c0-0.276,0.224-0.5,0.5-0.5H25v-1.471c0-1.427,0.682-2.79,1.823-3.647L27.2,47.1c0.001,0,0.002-0.001,0.002-0.001 c0.044-0.033,1.094-0.805,3.074-1.794c0.154-0.078,0.339-0.068,0.486,0.022S31,45.579,31,45.752V51.5 c0,0.175-0.092,0.338-0.242,0.429c-0.024,0.015-2.446,1.501-4.846,4.996c-0.456,0.665-0.957,1.693-0.962,1.704 C24.864,58.804,24.688,58.91,24.5,58.91z M25,53.5v2.989c0.029-0.044,0.059-0.088,0.088-0.131c2.11-3.074,4.21-4.652,4.912-5.13 v-4.656c-1.412,0.754-2.175,1.31-2.202,1.329l-0.375,0.281C26.532,48.851,26,49.915,26,51.029V53c0,0.276-0.224,0.5-0.5,0.5H25z"/><path fill="#1f212b" d="M26,52.5h-2v-1.471c0-1.741,0.832-3.403,2.225-4.447L26.6,46.3c0.011-0.007,1.109-0.831,3.231-1.89 l0.893,1.789c-1.917,0.957-2.911,1.691-2.921,1.699l-0.378,0.283C26.532,48.851,26,49.915,26,51.029V52.5z"/><path fill="#1f212b" d="M76,52.5h-2v-1.471c0-1.114-0.532-2.179-1.424-2.848l-0.381-0.285 c-0.008-0.006-1.002-0.74-2.918-1.697l0.893-1.789c1.501,0.749,2.489,1.38,2.943,1.688h0.099l0.244,0.243l0.32,0.239 C75.169,47.626,76,49.289,76,51.029V52.5z"/><path fill="#1f212b" d="M77.49,62.994v-1c1.377,0,2.497-1.12,2.497-2.497S78.867,57,77.49,57H74.5v-1h2.99 c1.929,0,3.497,1.568,3.497,3.497S79.419,62.994,77.49,62.994z"/><path fill="#1f212b" d="M50,91c-5.905,0-8.792-1.563-11.585-3.073l-0.125-0.068c-0.718-0.388-1.444-0.779-2.256-1.158 c-0.475-0.225-1.031-0.447-1.654-0.693C32.904,85.414,20,79.878,20,67.71c0-4.46,3.248-10.216,4-11.487V53h2v3.783l-0.148,0.24 C25.813,57.087,22,63.342,22,67.71c0,10.854,11.778,15.899,13.121,16.439c0.661,0.262,1.257,0.502,1.763,0.74 c0.86,0.401,1.613,0.808,2.341,1.2l0.143,0.077C42.176,87.688,44.602,89,50,89s7.824-1.313,10.633-2.833l0.122-0.066 c0.748-0.403,1.501-0.81,2.363-1.213c0.504-0.236,1.1-0.477,1.766-0.74C66.222,83.609,78,78.563,78,67.71 c0-4.368-3.813-10.623-3.852-10.687L74,56.783V53h2v3.223c0.752,1.271,4,7.027,4,11.487c0,12.168-12.904,17.704-14.375,18.295 c-0.628,0.248-1.185,0.471-1.657,0.693c-0.813,0.381-1.54,0.772-2.243,1.151l-0.137,0.075C58.792,89.438,55.905,91,50,91z"/><path fill="#1f212b" d="M77.764,70.859l0.166-1.793C77.978,68.554,78,68.122,78,67.71c0-4.368-3.813-10.623-3.852-10.687 L74,56.783v-4.197l0.293-0.293C74.387,52.199,76.627,50,80.24,50C83.6,50,87,52.621,87,57.63c0,4.907-3.278,10.248-7.627,12.424 L77.764,70.859z M76,56.223c0.729,1.234,3.813,6.694,3.992,11.094C82.896,65.11,85,61.173,85,57.63c0-3.696-2.395-5.63-4.76-5.63 c-2.129,0-3.637,0.981-4.24,1.456V56.223z"/><path fill="#1f212b" d="M75.703,53.711l-1.41-1.418C74.387,52.199,76.627,50,80.24,50c0.293,0,0.592,0.022,0.894,0.066 C82.979,47.904,85,44.699,85,41.041C85,31.865,71.777,11,50,11S15,31.865,15,41.041c0,3.658,2.021,6.863,3.866,9.025 C19.168,50.022,19.467,50,19.76,50c3.613,0,5.854,2.199,5.947,2.293l-1.414,1.414C24.279,53.693,22.519,52,19.76,52 c-0.33,0-0.679,0.044-1.034,0.129l-0.58,0.141l-0.398-0.444C15.581,49.41,13,45.578,13,41.041C13,31.742,25.966,9,50,9 s37,22.742,37,32.041c0,4.537-2.581,8.369-4.747,10.784l-0.398,0.444l-0.58-0.141C80.919,52.044,80.57,52,80.24,52 C77.481,52,75.721,53.693,75.703,53.711z"/><path fill="#1f212b" d="M27.534,48.079l-0.521-0.246C26.071,47.389,23,45.656,23,42c0-5.226,7.19-13,27-13s27,7.774,27,13 c0,3.694-3.075,5.402-4.019,5.838l-0.518,0.239l-0.47-0.324C70.604,46.792,63.008,42,50,42c-13.004,0-20.602,4.791-21.992,5.752 L27.534,48.079z M50,40c12.463,0,20.267,4.271,22.622,5.771C73.521,45.244,75,44.063,75,42c0-4.253-6.787-11-25-11s-25,6.747-25,11 c0,2.039,1.483,3.231,2.384,3.767C29.745,44.265,37.549,40,50,40z"/><path fill="#1f212b" d="M75.5,58.91c-0.188,0-0.364-0.106-0.45-0.281c-0.005-0.011-0.506-1.039-0.962-1.704 c-2.41-3.512-4.821-4.981-4.845-4.996C69.092,51.839,69,51.676,69,51.5v-5.748c0-0.173,0.09-0.334,0.237-0.425 c0.146-0.091,0.332-0.101,0.486-0.022c1.98,0.989,3.03,1.761,3.074,1.794c0,0,0.001,0.001,0.002,0.001l0.377,0.282 C74.318,48.239,75,49.603,75,51.029V52.5h0.5c0.276,0,0.5,0.224,0.5,0.5v5.41c0,0.233-0.161,0.435-0.388,0.487 C75.574,58.906,75.537,58.91,75.5,58.91z M70,51.229c0.702,0.478,2.802,2.056,4.912,5.13c0.029,0.043,0.059,0.087,0.088,0.131V53.5 h-0.5c-0.276,0-0.5-0.224-0.5-0.5v-1.971c0-1.114-0.532-2.179-1.423-2.847l-0.375-0.281c-0.027-0.02-0.79-0.575-2.202-1.329V51.229 z"/><path fill="#1f212b" d="M40.021,30.756c-0.214,0-0.407-0.137-0.476-0.345C39.184,29.3,39,28.152,39,27 c0-6.065,4.935-11,11-11s11,4.935,11,11c0,1.147-0.181,2.287-0.537,3.388c-0.076,0.232-0.307,0.373-0.554,0.34 C56.857,30.245,53.523,30,50,30c-3.593,0-6.923,0.252-9.897,0.749C40.075,30.754,40.048,30.756,40.021,30.756z M50,17 c-5.514,0-10,4.486-10,10c0,0.906,0.125,1.811,0.372,2.692C43.289,29.232,46.525,29,50,29c3.411,0,6.649,0.227,9.634,0.673 C59.877,28.799,60,27.902,60,27C60,21.486,55.514,17,50,17z"/><path fill="#1f212b" d="M56.5,67c-0.276,0-0.5-0.224-0.5-0.5c0-0.294-0.038-0.587-0.114-0.871 c-0.07-0.268,0.088-0.541,0.354-0.612c0.277-0.074,0.542,0.089,0.612,0.354C56.95,65.74,57,66.12,57,66.5 C57,66.776,56.776,67,56.5,67z"/><path fill="#1f212b" d="M55.178,64c-0.13,0-0.259-0.05-0.356-0.149c-1.04-1.059-2.625-1.724-4.351-1.826 c-0.276-0.017-0.486-0.253-0.47-0.528s0.257-0.487,0.528-0.47c1.97,0.117,3.794,0.891,5.005,2.123 c0.193,0.197,0.191,0.514-0.006,0.707C55.431,63.952,55.305,64,55.178,64z"/><path fill="#1f212b" d="M44.441,30.226c0.003-0.006,0.009-0.009,0.012-0.015l3.167-6.787l1.996,2.396 c0.19,0.229,0.578,0.229,0.769,0l1.996-2.396l3.167,6.787c0.003,0.006,0.009,0.009,0.012,0.015 c1.334,0.112,2.598,0.261,3.784,0.447l-5.9-11.403c-0.079-0.153-0.231-0.255-0.402-0.269c-0.177-0.016-0.339,0.061-0.441,0.198 L50,22.667L47.4,19.2c-0.103-0.138-0.268-0.214-0.441-0.198c-0.171,0.014-0.324,0.115-0.402,0.269l-5.901,11.404 C41.842,30.487,43.106,30.338,44.441,30.226z"/><path fill="#1f212b" d="M45.5,49c-0.1,0-0.2-0.03-0.287-0.091C45.186,48.891,42.434,47,38.5,47 c-2.95,0-4.61,1.814-4.626,1.832c-0.154,0.174-0.406,0.217-0.61,0.107c-0.203-0.109-0.306-0.343-0.248-0.566 C33.074,48.154,34.468,43,38.5,43c4.394,0,7.312,5.038,7.435,5.253c0.116,0.203,0.075,0.459-0.098,0.616 C45.742,48.956,45.621,49,45.5,49z"/><path fill="#1f212b" d="M54.164,48.869c-0.173-0.157-0.214-0.413-0.098-0.616C54.187,48.038,57.106,43,61.5,43 c4.032,0,5.426,5.154,5.484,5.373c0.058,0.224-0.044,0.457-0.248,0.566s-0.456,0.066-0.61-0.107C66.11,48.814,64.45,47,61.5,47 c-3.934,0-6.686,1.891-6.713,1.909C54.7,48.97,54.6,49,54.5,49C54.379,49,54.258,48.956,54.164,48.869z"/></g></svg>